<svg width="100" height="100" viewBox="0 0 100 100" fill="none" xmlns="http://www.w3.org/2000/svg">
<g clip-path="url(#clip0_19_2)">
<circle cx="50" cy="50" r="50" fill="#333333"/>
<path d="M31.1389 79.2644C33.9907 80.4215 37.1019 81 40.4722 81C44.6204 81 49.0278 80.325 53.6944 78.9751C58.3611 77.6252 62.8657 75.5039 67.2083 72.6112C71.6157 69.7185 75.5046 65.958 78.875 61.3297C79.0694 61.0726 79.037 60.8154 78.7778 60.5583C78.5833 60.3012 78.3565 60.1726 78.0972 60.1726C77.838 60.1726 77.6111 60.3012 77.4167 60.5583C74.5 64.6724 70.9028 68.0793 66.625 70.7792C62.3472 73.4147 57.9398 75.3753 53.4028 76.661C48.9306 77.9466 44.8148 78.5894 41.0556 78.5894C36.713 78.5894 33.1806 77.6895 30.4583 75.8896C27.7361 74.0254 26.375 71.1327 26.375 67.2115C26.375 65.0259 26.7963 62.6475 27.6389 60.0762C29 55.8336 30.912 51.816 33.375 48.0233C35.9028 44.1664 38.7222 40.6309 41.8333 37.4168C45.0093 34.1384 48.2176 31.31 51.4583 28.9316C54.7639 26.5531 57.9074 24.7211 60.8889 23.4355C63.8704 22.0855 66.463 21.4106 68.6667 21.4106C70.6759 21.4106 72.0694 21.9248 72.8472 22.9533C73.6898 23.9176 74.1111 25.1068 74.1111 26.521C74.1111 27.4209 73.9491 28.3852 73.625 29.4137C73.3657 30.3779 72.9769 31.3421 72.4583 32.3064C70.125 36.8061 69.7568 37.7531 65.9054 40.8148C63.5946 42.3457 63.7134 42.0849 63.0278 42.1415C62.25 42.2058 61.6343 42.4629 61.1806 42.9129C61.1806 42.9129 60.5972 43.4914 60.5972 43.8771C60.5972 44.6485 61.213 45.1949 62.4444 45.1306C63.9797 45.1306 67.662 41.8523 69.9306 39.9238C72.2639 37.931 74.1435 35.8419 75.5694 33.6563C76.9954 31.4707 77.7083 29.2851 77.7083 27.0995C77.7083 25.2354 77.0602 23.5962 75.7639 22.182C74.5324 20.7035 72.6204 19.7392 70.0278 19.2893C68.8611 19.0964 67.7269 19 66.625 19C62.9306 19 59.2037 19.7714 55.4444 21.3142C51.75 22.7926 48.1528 24.8497 44.6528 27.4852C41.1528 30.0565 37.912 33.0135 34.9306 36.3561C32.0139 39.6988 29.4861 43.2665 27.3472 47.0591C25.2731 50.8517 23.7824 54.6444 22.875 58.437C22.2917 60.8154 22 63.0332 22 65.0902C22 68.7543 22.8102 71.7755 24.4306 74.154C26.1157 76.4681 28.3519 78.1716 31.1389 79.2644Z" fill="#00BFFF"/>
</g>
<defs>
<clipPath id="clip0_19_2">
<rect width="100" height="100" fill="white"/>
</clipPath>
</defs>
</svg>
